<svg xmlns="http://www.w3.org/2000/svg" data-name="ui set" viewBox="0 0 32 40" x="0px" y="0px"><title>layout sidebar toolbar setting view bar</title><path d="M28.5,4H3.5A2.5,2.5,0,0,0,1,6.5v19A2.5,2.5,0,0,0,3.5,28h25A2.5,2.5,0,0,0,31,25.5V6.5A2.5,2.5,0,0,0,28.5,4ZM2,25.5V6.5A1.5,1.5,0,0,1,3.5,5H10V27H3.5A1.5,1.5,0,0,1,2,25.5Zm28,0A1.5,1.5,0,0,1,28.5,27H11V5H28.5A1.5,1.5,0,0,1,30,6.5Z"/><path d="M4.5,9h3a.5.5,0,0,0,0-1h-3a.5.5,0,0,0,0,1Z"/><path d="M7.5,11h-3a.5.5,0,0,0,0,1h3a.5.5,0,0,0,0-1Z"/><path d="M7.5,14h-3a.5.5,0,0,0,0,1h3a.5.5,0,0,0,0-1Z"/><path d="M7.5,17h-3a.5.5,0,0,0,0,1h3a.5.5,0,0,0,0-1Z"/><path d="M7.5,20h-3a.5.5,0,0,0,0,1h3a.5.5,0,0,0,0-1Z"/><path d="M7.5,23h-3a.5.5,0,0,0,0,1h3a.5.5,0,0,0,0-1Z"/><text x="0" y="47" fill="#000000" font-size="5px" font-weight="bold" font-family="'Helvetica Neue', Helvetica, Arial-Unicode, Arial, Sans-serif">Created by Nur Asyrof Muhammad</text><text x="0" y="52" fill="#000000" font-size="5px" font-weight="bold" font-family="'Helvetica Neue', Helvetica, Arial-Unicode, Arial, Sans-serif">from the Noun Project</text></svg>